<?xml version="1.0" encoding="UTF-8"?>
<svg width="752pt" height="752pt" version="1.1" viewBox="0 0 752 752" xmlns="http://www.w3.org/2000/svg">
 <path d="m546.2 339h-7.4023v-88.797-0.44531c-0.035157-0.65234-0.16016-1.3008-0.36719-1.9219v-0.66797c-0.33984-0.78906-0.81641-1.5156-1.4062-2.1445l-88.797-88.797c-0.62891-0.58984-1.3555-1.0664-2.1445-1.4062h-0.66797c-0.73828-0.40234-1.5391-0.67969-2.3672-0.8125h-222.43c-4.0898 0-7.4023 3.3125-7.4023 7.3984v177.59h-7.3984c-4.0859 0-7.3984 3.3125-7.3984 7.3984v148c0 1.9609 0.77734 3.8438 2.1641 5.2305 1.3906 1.3867 3.2734 2.168 5.2344 2.168h7.3984v88.797c0 1.9609 0.78125 3.8438 2.168 5.2305s3.2695 2.168 5.2344 2.168h310.79c1.9648 0 3.8438-0.78125 5.2344-2.168 1.3867-1.3867 2.1641-3.2695 2.1641-5.2305v-88.797h7.4023c1.9609 0 3.8438-0.78125 5.2305-2.168 1.3906-1.3867 2.168-3.2695 2.168-5.2305v-148c0-1.9609-0.77734-3.8438-2.168-5.2305-1.3867-1.3906-3.2695-2.168-5.2305-2.168zm-96.195-159.76 63.562 63.566h-63.562zm73.996 403.95h-295.99v-81.395h295.99zm-195.5-113.44 2.1445-13.836c1.4375 0.28125 2.9023 0.42969 4.3672 0.44531 1.0586 0.078125 2.1211 0.078125 3.1797 0 2.2969-0.085937 4.4805-1.0078 6.1445-2.5898 1.6172-1.5391 2.5039-3.6914 2.4414-5.9219v-76.66h14.801v76.219h-0.003907c0.16406 6.2695-2.3359 12.32-6.8789 16.648-4.3867 4.4492-10.402 6.9062-16.652 6.8086-3.2188 0.15234-6.4453-0.22266-9.543-1.1133zm73.996-36.035-13.246-12.578c-4.1211-3.75-7.6602-8.0898-10.508-12.875-2.2305-4.2969-3.3711-9.0742-3.3281-13.914-0.49609-7.8867 2.9062-15.516 9.1016-20.422 3.9805-2.8555 8.793-4.3125 13.688-4.1445 4.7852-0.12891 9.5078 1.1016 13.617 3.5508 3.0664 1.7852 5.6133 4.3359 7.3984 7.4023 1.875 3.5273 2.9844 7.4102 3.2578 11.395l-14.281 2.5898c-0.1875-3.4336-1.3984-6.7344-3.4805-9.4727-1.7422-1.6289-4.168-2.3203-6.5117-1.8477-2.5938-0.074219-5.0039 1.332-6.2148 3.625-1.2383 2.2617-1.8281 4.8242-1.7031 7.3984 0.26172 5.1367 2.332 10.012 5.8477 13.766 1.9922 2.3008 4.1953 4.4062 6.5859 6.2891 3.4766 2.8867 5.7734 4.957 6.8828 6.0664 3.3164 3.2227 6.1797 6.8828 8.5078 10.879 0.85547 1.5078 1.6211 3.0625 2.293 4.6602 1.3047 3 2.0586 6.207 2.2227 9.4727 0.29297 6.332-1.5859 12.57-5.3281 17.684-2.5391 3.4023-6.1289 5.875-10.211 7.0312-2.6914 0.78516-5.4883 1.1602-8.2891 1.1094-5.2852 0.25781-10.5-1.2812-14.801-4.3633-3.2461-2.5234-5.793-5.8359-7.3984-9.6211-1.9453-4.418-3.0508-9.1602-3.2578-13.984l14.207-1.0352 0.003906-0.003906c0.16797 4.5508 1.7734 8.9297 4.5859 12.508 1.5195 1.7383 3.7617 2.668 6.0664 2.5156 3.2578-0.12109 6.2109-1.9492 7.7695-4.8086 1.1055-1.9883 1.6172-4.2461 1.4805-6.5117-0.10547-4.6406-1.9844-9.0625-5.2539-12.359zm121.5-94.715h-295.99v-170.2h207.19v81.398c0 1.9609 0.78125 3.8438 2.168 5.2305 1.3867 1.3906 3.2695 2.168 5.2305 2.168h81.398z"/>
</svg>
