<?xml version="1.0" encoding="UTF-8"?>
<svg width="752pt" height="752pt" version="1.1" viewBox="0 0 752 752" xmlns="http://www.w3.org/2000/svg">
 <g>
  <path d="m546.2 339h-7.4023v-88.797-0.44531c-0.035157-0.65234-0.16016-1.3008-0.36719-1.9219v-0.66797c-0.33984-0.78906-0.81641-1.5156-1.4062-2.1445l-88.797-88.797c-0.62891-0.58984-1.3555-1.0664-2.1445-1.4062h-0.66797c-0.73828-0.40234-1.5391-0.67969-2.3672-0.8125h-222.43c-4.0898 0-7.4023 3.3125-7.4023 7.3984v177.59h-7.3984c-4.0859 0-7.3984 3.3125-7.3984 7.3984v148c0 1.9609 0.77734 3.8438 2.1641 5.2305 1.3906 1.3867 3.2734 2.168 5.2344 2.168h7.3984v88.797c0 1.9609 0.78125 3.8438 2.168 5.2305s3.2695 2.168 5.2344 2.168h310.79c1.9648 0 3.8438-0.78125 5.2344-2.168 1.3867-1.3867 2.1641-3.2695 2.1641-5.2305v-88.797h7.4023c1.9609 0 3.8438-0.78125 5.2305-2.168 1.3906-1.3867 2.168-3.2695 2.168-5.2305v-148c0-1.9609-0.77734-3.8438-2.168-5.2305-1.3867-1.3906-3.2695-2.168-5.2305-2.168zm-96.195-159.76 63.562 63.566h-63.562zm73.996 403.95h-295.99v-81.395h295.99zm-231.68-113.44v-98.711h23.457c6.4883-0.28516 12.793 2.2188 17.312 6.8828 4.0352 4.5859 6.1562 10.547 5.9219 16.648v14.355c0.10156 6.2695-2.3555 12.309-6.8086 16.723-4.2812 4.5352-10.27 7.0586-16.5 6.957h-8.4375v37zm91.605-56.754v-41.957h14.801v98.711h-14.801v-41.953h-17.906v41.883h-14.801v-98.641h14.801v41.957zm28.191 56.828 0.003906-98.785h23.457c6.4883-0.28516 12.793 2.2188 17.312 6.8828 4.082 4.5938 6.2266 10.586 5.9961 16.723v14.355c0.10156 6.2695-2.3555 12.309-6.8086 16.723-4.2812 4.5352-10.27 7.0586-16.5 6.957h-8.5117v37zm111.89-130.82h-295.99v-170.2h207.19v81.398c0 1.9609 0.78125 3.8438 2.168 5.2305 1.3867 1.3906 3.2695 2.168 5.2305 2.168h81.398z"/>
  <path d="m322.28 415.29c1.6289-1.5938 2.5391-3.7852 2.5156-6.0664v-14.801c0.10547-2.2969-0.72266-4.5391-2.2969-6.2148-1.6484-1.6211-3.9023-2.4805-6.2148-2.3672h-9.0273v31.598h8.9531c2.2305 0.14844 4.4258-0.62891 6.0703-2.1484z"/>
  <path d="m442.08 415.29c1.6016-1.6055 2.4844-3.7969 2.4414-6.0664v-14.801c0.10937-2.1211-0.57813-4.2031-1.9258-5.8438-1.6484-1.625-3.9023-2.4805-6.2148-2.3672h-9.3242v31.598h8.9531v-0.003906c2.2891 0.050781 4.4883-0.85938 6.0703-2.5156z"/>
 </g>
</svg>
