<?xml version="1.0" encoding="UTF-8"?>
<svg width="752pt" height="752pt" version="1.1" viewBox="0 0 752 752" xmlns="http://www.w3.org/2000/svg">
 <path d="m546.2 339h-7.4023v-88.797-0.44531c-0.035157-0.65234-0.16016-1.3008-0.36719-1.9219v-0.66797c-0.33984-0.78906-0.81641-1.5156-1.4062-2.1445l-88.797-88.797c-0.62891-0.58984-1.3555-1.0664-2.1445-1.4062h-0.66797c-0.73828-0.40234-1.5391-0.67969-2.3672-0.8125h-222.43c-4.0898 0-7.4023 3.3125-7.4023 7.3984v177.59h-7.3984c-4.0859 0-7.3984 3.3125-7.3984 7.3984v148c0 1.9609 0.77734 3.8438 2.1641 5.2305 1.3906 1.3867 3.2734 2.168 5.2344 2.168h7.3984v88.797c0 1.9609 0.78125 3.8438 2.168 5.2305s3.2695 2.168 5.2344 2.168h310.79c1.9648 0 3.8438-0.78125 5.2344-2.168 1.3867-1.3867 2.1641-3.2695 2.1641-5.2305v-88.797h7.4023c1.9609 0 3.8438-0.78125 5.2305-2.168 1.3906-1.3867 2.168-3.2695 2.168-5.2305v-148c0-1.9609-0.77734-3.8438-2.168-5.2305-1.3867-1.3906-3.2695-2.168-5.2305-2.168zm-96.195-159.76 63.562 63.566h-63.562zm73.996 403.95h-295.99v-81.395h295.99zm-202.23-196.02c-1.5898-1.6406-3.7852-2.5508-6.0664-2.5156-2.2617-0.03125-4.4336 0.87891-5.9961 2.5156-1.6289 1.5938-2.5391 3.7852-2.5156 6.0664v54.094c0 4.6992 3.8086 8.5078 8.5117 8.5078 2.2812 0.035156 4.4766-0.875 6.0664-2.5156 1.6328-1.5625 2.5469-3.7344 2.5156-5.9922v-13.691h15.465v13.84c0 6.2617-2.4961 12.27-6.9297 16.695-4.4336 4.4258-10.445 6.9062-16.707 6.8984-6.2656-0.007813-12.27-2.5078-16.691-6.9453-4.4883-4.3633-6.9805-10.391-6.8828-16.648v-53.945c0-8.4336 4.5-16.227 11.805-20.441 7.3047-4.2188 16.301-4.2188 23.605 0 7.3008 4.2148 11.801 12.008 11.801 20.441v11.32h-15.539v-11.617c0.050781-2.2695-0.83203-4.4648-2.4414-6.0664zm56.828 46.469-13.246-12.578h0.003906c-4.1211-3.75-7.6602-8.0898-10.508-12.875-2.2305-4.2969-3.375-9.0742-3.332-13.914-0.49609-7.8867 2.9062-15.516 9.1016-20.422 4.043-2.9023 8.9414-4.3594 13.91-4.1445 4.7852-0.12891 9.5078 1.1016 13.617 3.5508 3.0664 1.7852 5.6133 4.3359 7.3984 7.4023 1.7188 3.6875 2.625 7.6992 2.6641 11.766l-14.281 2.5898c-0.1875-3.4336-1.3984-6.7344-3.4766-9.4727-1.5-1.668-3.6797-2.5664-5.9219-2.4414-2.5898-0.074219-5.0039 1.332-6.2148 3.625-1.2383 2.2617-1.8281 4.8242-1.6992 7.3984 0.25781 5.1367 2.332 10.012 5.8438 13.766 1.9961 2.2969 4.1992 4.4023 6.5859 6.2891 3.4766 2.8867 5.7734 4.957 6.8828 6.0664 3.3164 3.2227 6.1797 6.8828 8.5078 10.879 0.85938 1.5078 1.625 3.0625 2.293 4.6602 1.3047 3 2.0547 6.207 2.2227 9.4727 0.28906 6.332-1.5898 12.57-5.3281 17.688-2.5391 3.4023-6.1289 5.8711-10.211 7.0273-2.6914 0.78516-5.4844 1.1602-8.2891 1.1094-5.2852 0.25781-10.5-1.2812-14.801-4.3633-3.2461-2.5234-5.793-5.8359-7.3984-9.6211-1.9453-4.418-3.0469-9.1602-3.2539-13.984l14.207-1.0352c0.24219 4.5117 1.8984 8.8359 4.7344 12.355 1.4766 1.8711 3.7617 2.918 6.1406 2.8125 3.2578-0.12109 6.2109-1.9492 7.7695-4.8086 1.1055-1.9844 1.6172-4.2461 1.4805-6.5117-0.16406-4.6367-2.0938-9.0312-5.4023-12.285zm59.199 0-13.246-12.578c-4.1172-3.75-7.6602-8.0898-10.508-12.875-2.2305-4.2969-3.375-9.0742-3.3281-13.914-0.33203-7.9688 3.2969-15.586 9.6914-20.348 4.043-2.9023 8.9414-4.3594 13.914-4.1445 4.7812-0.12891 9.5039 1.1016 13.613 3.5508 3.0664 1.7852 5.6172 4.3359 7.4023 7.4023 1.8672 3.5273 2.9766 7.4102 3.2539 11.395l-14.281 2.5898c-0.1875-3.4336-1.3984-6.7305-3.4766-9.4727-1.5039-1.668-3.6797-2.5664-5.9219-2.4414-2.5938-0.074219-5.0039 1.332-6.2148 3.625-1.2383 2.2656-1.8281 4.8242-1.7031 7.4023 0.26172 5.1328 2.332 10.008 5.8477 13.762 1.9922 2.2969 4.1992 4.4023 6.5859 6.2891 3.4766 2.8867 5.7734 4.957 6.8828 6.0664l-0.003906 0.003906c3.3203 3.2188 6.1836 6.8789 8.5117 10.875 0.85547 1.5078 1.6211 3.0664 2.293 4.6641 1.3047 2.9961 2.0547 6.207 2.2188 9.4688 0.29297 6.332-1.5898 12.57-5.3242 17.688-2.5391 3.4023-6.1289 5.8711-10.215 7.0312-2.6914 0.78125-5.4844 1.1562-8.2852 1.1094-5.2852 0.25391-10.5-1.2852-14.801-4.3672-3.2461-2.5234-5.793-5.8359-7.3984-9.6211-1.9453-4.418-3.0508-9.1602-3.2578-13.984l14.207-1.0352c0.17188 4.5469 1.7773 8.9258 4.5898 12.504 1.4727 1.8711 3.7617 2.918 6.1406 2.8125 3.1719-0.14062 6.0508-1.9023 7.6211-4.6602 1.1055-1.9844 1.6172-4.2461 1.4805-6.5117-0.30078-4.7109-2.4219-9.1172-5.918-12.285zm86.207-94.641h-295.99v-170.2h207.19v81.398c0 1.9609 0.78125 3.8438 2.168 5.2305 1.3867 1.3906 3.2695 2.168 5.2305 2.168h81.398z"/>
</svg>
