<?xml version="1.0" encoding="UTF-8"?>
<svg width="752pt" height="752pt" version="1.1" viewBox="0 0 752 752" xmlns="http://www.w3.org/2000/svg">
 <path d="m546.2 339h-7.4023v-88.797-0.44531c-0.035157-0.65234-0.16016-1.3008-0.36719-1.9219v-0.66797c-0.33984-0.78906-0.81641-1.5156-1.4062-2.1445l-88.797-88.797c-0.62891-0.58984-1.3555-1.0664-2.1445-1.4062h-0.66797c-0.73828-0.40234-1.5391-0.67969-2.3672-0.8125h-222.43c-4.0898 0-7.4023 3.3125-7.4023 7.3984v177.59h-7.3984c-4.0859 0-7.3984 3.3125-7.3984 7.3984v148c0 1.9609 0.77734 3.8438 2.1641 5.2305 1.3906 1.3867 3.2734 2.168 5.2344 2.168h7.3984v88.797c0 1.9609 0.78125 3.8438 2.168 5.2305s3.2695 2.168 5.2344 2.168h310.79c1.9648 0 3.8438-0.78125 5.2344-2.168 1.3867-1.3867 2.1641-3.2695 2.1641-5.2305v-88.797h7.4023c1.9609 0 3.8438-0.78125 5.2305-2.168 1.3906-1.3867 2.168-3.2695 2.168-5.2305v-148c0-1.9609-0.77734-3.8438-2.168-5.2305-1.3867-1.3906-3.2695-2.168-5.2305-2.168zm-96.195-159.76 63.562 63.566h-63.562zm73.996 403.95h-295.99v-81.395h295.99zm-236.12-170.19v-41.957h14.801v98.785h-14.801v-42.027h-17.98v41.883h-14.801v-98.641h14.801v41.957zm26.859-26.934v-14.801h46.473v14.801h-15.688v83.762h-14.801v-83.836zm99.824 83.762h-11.988l-14.43-61.934v61.934h-14.801v-98.859h21.387l13.91 71.039 13.32-71.039h20.645v98.859h-14.797v-62.156zm81.398-14.801v14.801h-40.258v-98.785h14.801v83.988zm28.043-116.02h-295.99v-170.2h207.19v81.398c0 1.9609 0.78125 3.8438 2.168 5.2305 1.3867 1.3906 3.2695 2.168 5.2305 2.168h81.398z"/>
</svg>
