<?xml version="1.0" encoding="UTF-8"?>
<svg width="752pt" height="752pt" version="1.1" viewBox="0 0 752 752" xmlns="http://www.w3.org/2000/svg">
 <g>
  <path d="m377.85 382.44c-4.6445 0-8.4297 3.7227-8.5117 8.3633v54.094c0 4.6992 3.8125 8.5078 8.5117 8.5078 2.2812 0.023437 4.4727-0.88281 6.0664-2.5156 1.6367-1.5625 2.5469-3.7344 2.5156-5.9922v-54.094c0.03125-2.2617-0.87891-4.4336-2.5156-5.9922-1.6172-1.5781-3.8086-2.4336-6.0664-2.3711z"/>
  <path d="m546.2 339h-7.4023v-88.797-0.44531c-0.035157-0.65234-0.16016-1.3008-0.36719-1.9219v-0.66797c-0.33984-0.78906-0.81641-1.5156-1.4062-2.1445l-88.797-88.797c-0.62891-0.58984-1.3555-1.0664-2.1445-1.4062h-0.66797c-0.73828-0.40234-1.5391-0.67969-2.3672-0.8125h-222.43c-4.0898 0-7.4023 3.3125-7.4023 7.3984v177.59h-7.3984c-4.0859 0-7.3984 3.3125-7.3984 7.3984v148c0 1.9609 0.77734 3.8438 2.1641 5.2305 1.3906 1.3867 3.2734 2.168 5.2344 2.168h7.3984v88.797c0 1.9609 0.78125 3.8438 2.168 5.2305s3.2695 2.168 5.2344 2.168h310.79c1.9648 0 3.8438-0.78125 5.2344-2.168 1.3867-1.3867 2.1641-3.2695 2.1641-5.2305v-88.797h7.4023c1.9609 0 3.8438-0.78125 5.2305-2.168 1.3906-1.3867 2.168-3.2695 2.168-5.2305v-148c0-1.9609-0.77734-3.8438-2.168-5.2305-1.3867-1.3906-3.2695-2.168-5.2305-2.168zm-96.195-159.76 63.562 63.566h-63.562zm73.996 403.95h-295.99v-81.395h295.99zm-202.09-151.69-13.246-12.578v-0.003906c-4.1172-3.75-7.6602-8.0859-10.508-12.875-2.2969-4.2539-3.5156-9.0039-3.5508-13.836-0.49609-7.8867 2.9062-15.52 9.1016-20.422 4.043-2.9023 8.9414-4.3633 13.91-4.1445 4.7852-0.13672 9.5078 1.0977 13.617 3.5508 3.0625 1.7852 5.6133 4.3359 7.3984 7.3984 1.8711 3.5312 2.9805 7.4141 3.2578 11.398l-14.281 2.5898h-0.003906c-0.22266-3.3242-1.4062-6.5117-3.4023-9.1758-1.5-1.6719-3.6797-2.5703-5.918-2.4414-2.5938-0.078126-5.0039 1.3281-6.2188 3.625-1.2383 2.2617-1.8281 4.8242-1.6992 7.3984 0.25391 5.0625 2.2695 9.8789 5.6953 13.617 1.9961 2.2969 4.2031 4.4023 6.5859 6.2891 3.4531 2.9102 5.7461 4.9336 6.8828 6.0664 3.3203 3.2227 6.1836 6.8828 8.5078 10.879 0.85938 1.5039 1.6289 3.0625 2.2969 4.6602 1.3047 3 2.0547 6.207 2.2188 9.4727 0.28906 6.3281-1.5898 12.57-5.3281 17.684-2.5391 3.4023-6.1289 5.875-10.211 7.0312-2.6914 0.78125-5.4844 1.1562-8.2891 1.1094-5.2812 0.25781-10.5-1.2812-14.797-4.3633-3.2461-2.5273-5.793-5.8398-7.4023-9.6211-1.9414-4.418-3.0469-9.1641-3.2539-13.984l14.207-1.0352v-0.003906c0.17578 4.5508 1.7812 8.9258 4.5859 12.508 1.4766 1.8711 3.7617 2.918 6.1445 2.8125 3.3164-0.18359 6.2852-2.1328 7.7695-5.1055 1.1133-2.0078 1.625-4.2969 1.4805-6.5859-0.30469-4.5234-2.2812-8.7734-5.5508-11.914zm82.508 27.75v13.91c-2.9531 0.34375-5.9453-0.12891-8.6445-1.3672-2.7031-1.2422-5.0117-3.1992-6.6758-5.6641-3.3164 1.793-7.0352 2.707-10.801 2.6641-6.2891 0.019531-12.32-2.4688-16.766-6.9141-4.4453-4.4453-6.9336-10.477-6.9141-16.766v-53.867c0-8.4336 4.5-16.227 11.801-20.445 7.3047-4.2148 16.301-4.2148 23.605 0 7.3047 4.2188 11.805 12.012 11.805 20.445v53.945-0.003906c0.019531 4.1602-1.0781 8.25-3.1836 11.84 1.4961 1.5742 3.6055 2.4141 5.7734 2.293zm53.574-6.4375v14.801l-40.551-0.003906v-99.008h14.801l-0.003907 84.207zm66.004-113.81h-295.99v-170.2h207.19v81.398c0 1.9609 0.78125 3.8438 2.168 5.2305 1.3867 1.3906 3.2695 2.168 5.2305 2.168h81.398z"/>
 </g>
</svg>
