<?xml version="1.0" encoding="UTF-8"?>
<svg width="752pt" height="752pt" version="1.1" viewBox="0 0 752 752" xmlns="http://www.w3.org/2000/svg">
 <path d="m546.2 339h-7.4023v-88.797-0.44531c-0.035157-0.65234-0.16016-1.3008-0.36719-1.9219v-0.66797c-0.33984-0.78906-0.81641-1.5156-1.4062-2.1445l-88.797-88.797c-0.62891-0.58984-1.3555-1.0664-2.1445-1.4062h-0.66797c-0.73828-0.40234-1.5391-0.67969-2.3672-0.8125h-222.43c-4.0898 0-7.4023 3.3125-7.4023 7.3984v177.59h-7.3984c-4.0859 0-7.3984 3.3125-7.3984 7.3984v148c0 1.9609 0.77734 3.8438 2.1641 5.2305 1.3906 1.3867 3.2734 2.168 5.2344 2.168h7.3984v88.797c0 1.9609 0.78125 3.8438 2.168 5.2305s3.2695 2.168 5.2344 2.168h310.79c1.9648 0 3.8438-0.78125 5.2344-2.168 1.3867-1.3867 2.1641-3.2695 2.1641-5.2305v-88.797h7.4023c1.9609 0 3.8438-0.78125 5.2305-2.168 1.3906-1.3867 2.168-3.2695 2.168-5.2305v-148c0-1.9609-0.77734-3.8438-2.168-5.2305-1.3867-1.3906-3.2695-2.168-5.2305-2.168zm-96.195-159.76 63.562 63.566h-63.562zm73.996 403.95h-295.99v-81.395h295.99zm-256.77-149.47-13.246-12.578c-4.1172-3.75-7.6602-8.0898-10.508-12.875-2.2305-4.2969-3.375-9.0742-3.3281-13.914-0.49609-7.8867 2.9023-15.516 9.1016-20.422 4.0391-2.9023 8.9375-4.3594 13.91-4.1445 4.7852-0.13281 9.5078 1.0977 13.613 3.5508 3.0664 1.7852 5.6172 4.3359 7.4023 7.4023 1.8398 3.6602 2.875 7.6719 3.0312 11.766l-14.281 2.5898c-0.1875-3.4336-1.3984-6.7344-3.4766-9.4727-1.5-1.668-3.6797-2.5664-5.918-2.4414-2.5938-0.074219-5.0039 1.332-6.2188 3.625-1.2383 2.2617-1.8281 4.8242-1.6992 7.3984 0.26172 5.1367 2.332 10.012 5.8438 13.766 1.9961 2.2969 4.1992 4.4023 6.5859 6.2891 3.4766 2.8867 5.7734 4.957 6.8828 6.0664 3.3203 3.2227 6.1797 6.8828 8.5078 10.879 0.85937 1.5078 1.625 3.0625 2.2969 4.6602 1.3008 3 2.0547 6.207 2.2188 9.4727 0.28906 6.332-1.5898 12.57-5.3281 17.688-2.5391 3.3984-6.1289 5.8711-10.211 7.0273-2.6914 0.78516-5.4844 1.1602-8.2891 1.1094-5.2852 0.25781-10.5-1.2812-14.797-4.3633-3.2461-2.5234-5.7969-5.8359-7.4023-9.6211-1.9453-4.418-3.0469-9.1602-3.2539-13.984l14.207-1.0352c0.24219 4.5117 1.8984 8.8359 4.7344 12.355 1.4766 1.8711 3.7617 2.918 6.1406 2.8125 3.2578-0.12109 6.2109-1.9492 7.7734-4.8086 1.1016-1.9883 1.6172-4.2461 1.4766-6.5117-0.25781-4.6875-2.3281-9.0938-5.7695-12.285zm28.711-62.676h15.613l7.7695 52.906 7.3984-52.906h15.613l7.7695 52.832 7.3984-52.832h15.613l-15.758 98.785h-14.207l-8.5078-54.312-7.918 54.312h-14.285zm89.387 98.785v-98.785h14.801v98.785zm63.195-56.828v14.801h-20.055v41.957h-14.801v-98.789h42.398v14.801h-27.598v27.23zm17.684-26.859v-14.801h46.543v14.801h-15.832v83.688h-14.801v-83.836zm57.793-47.137h-295.99v-170.2h207.19v81.398c0 1.9609 0.78125 3.8438 2.168 5.2305 1.3867 1.3906 3.2695 2.168 5.2305 2.168h81.398z"/>
</svg>
